<svg width="21" height="20" viewBox="0 0 21 20" fill="none" xmlns="http://www.w3.org/2000/svg">
<g clip-path="url(#clip0_1287_22137)">
<path d="M18.4606 3.333C18.3849 3.3252 18.3085 3.3252 18.2328 3.333H2.67726C2.57756 3.33454 2.47852 3.34949 2.38281 3.37745L10.4106 11.3719L18.4606 3.333Z" fill="#808080"/>
<path d="M19.2814 4.10547L11.1925 12.161C10.9844 12.368 10.7027 12.4841 10.4092 12.4841C10.1157 12.4841 9.83405 12.368 9.62587 12.161L1.6092 4.16658C1.58456 4.25716 1.57149 4.35049 1.57031 4.44436V15.5555C1.57031 15.8502 1.68738 16.1328 1.89575 16.3411C2.10412 16.5495 2.38674 16.6666 2.68142 16.6666H18.237C18.5317 16.6666 18.8143 16.5495 19.0227 16.3411C19.231 16.1328 19.3481 15.8502 19.3481 15.5555V4.44436C19.3437 4.32861 19.3212 4.21427 19.2814 4.10547ZM3.44254 15.5555H2.67031V14.761L6.7092 10.7555L7.49254 11.5388L3.44254 15.5555ZM18.2259 15.5555H17.4481L13.3981 11.5388L14.1814 10.7555L18.2203 14.761L18.2259 15.5555Z" fill="#808080"/>
</g>
<defs>
<clipPath id="clip0_1287_22137">
<rect width="20" height="20" fill="white" transform="translate(0.5)"/>
</clipPath>
</defs>
</svg>
