<svg width="24" height="24" viewBox="0 0 24 24" fill="none" xmlns="http://www.w3.org/2000/svg">
<g clip-path="url(#clip0_3828_49271)">
<path d="M21.5551 3.99994C21.4642 3.99058 21.3726 3.99058 21.2817 3.99994H2.61505C2.49541 4.00179 2.37657 4.01972 2.26172 4.05328L11.8951 13.6466L21.5551 3.99994Z" fill="#004D7D"/>
<path d="M22.5385 4.92676L12.8318 14.5934C12.582 14.8418 12.2441 14.9811 11.8918 14.9811C11.5396 14.9811 11.2016 14.8418 10.9518 14.5934L1.33182 5.00009C1.30225 5.10878 1.28657 5.22079 1.28516 5.33342V18.6668C1.28516 19.0204 1.42563 19.3595 1.67568 19.6096C1.92573 19.8596 2.26487 20.0001 2.61849 20.0001H21.2852C21.6388 20.0001 21.9779 19.8596 22.228 19.6096C22.478 19.3595 22.6185 19.0204 22.6185 18.6668V5.33342C22.6132 5.19453 22.5862 5.05731 22.5385 4.92676ZM3.53182 18.6668H2.60516V17.7134L7.45182 12.9068L8.39182 13.8468L3.53182 18.6668ZM21.2718 18.6668H20.3385L15.4785 13.8468L16.4185 12.9068L21.2652 17.7134L21.2718 18.6668Z" fill="#004D7D"/>
</g>
<defs>
<clipPath id="clip0_3828_49271">
<rect width="24" height="24" fill="white"/>
</clipPath>
</defs>
</svg>
