<svg width="25" height="24" viewBox="0 0 25 24" fill="none" xmlns="http://www.w3.org/2000/svg">
<path d="M9.78065 12C9.78065 12.6962 10.0572 13.3639 10.5495 13.8562C11.0418 14.3484 11.7095 14.625 12.4057 14.625C13.1018 14.625 13.7695 14.3484 14.2618 13.8562C14.7541 13.3639 15.0307 12.6962 15.0307 12C15.0307 11.3038 14.7541 10.6361 14.2618 10.1438C13.7695 9.65156 13.1018 9.375 12.4057 9.375C11.7095 9.375 11.0418 9.65156 10.5495 10.1438C10.0572 10.6361 9.78065 11.3038 9.78065 12ZM22.5822 11.3953C20.3603 6.71484 17.0017 4.35938 12.4994 4.35938C7.99472 4.35938 4.63847 6.71484 2.41659 11.3977C2.32747 11.5864 2.28125 11.7925 2.28125 12.0012C2.28125 12.2099 2.32747 12.416 2.41659 12.6047C4.63847 17.2852 7.99706 19.6406 12.4994 19.6406C17.0041 19.6406 20.3603 17.2852 22.5822 12.6023C22.7627 12.2227 22.7627 11.782 22.5822 11.3953ZM12.4057 16.125C10.1275 16.125 8.28065 14.2781 8.28065 12C8.28065 9.72188 10.1275 7.875 12.4057 7.875C14.6838 7.875 16.5307 9.72188 16.5307 12C16.5307 14.2781 14.6838 16.125 12.4057 16.125Z" fill="#979797"/>
</svg>
