<svg width="24" height="24" viewBox="0 0 24 24" fill="none" xmlns="http://www.w3.org/2000/svg">
<path d="M3 5.25C3 4.65326 3.23705 4.08097 3.65901 3.65901C4.08097 3.23705 4.65326 3 5.25 3H18.75C19.3467 3 19.919 3.23705 20.341 3.65901C20.7629 4.08097 21 4.65326 21 5.25V11.012C20.5224 10.9701 20.0415 11.0335 19.5911 11.1977C19.1406 11.3618 18.7317 11.6227 18.393 11.962L15.355 15H11.25C11.0511 15 10.8603 15.079 10.7197 15.2197C10.579 15.3603 10.5 15.5511 10.5 15.75C10.5 15.9489 10.579 16.1397 10.7197 16.2803C10.8603 16.421 11.0511 16.5 11.25 16.5H13.855L12.49 17.865C12.0175 18.3372 11.6822 18.929 11.52 19.577L11.166 21H5.25C4.65326 21 4.08097 20.7629 3.65901 20.341C3.23705 19.919 3 19.3467 3 18.75V5.25ZM7.75 9.25C8.01522 9.25 8.26957 9.14464 8.45711 8.95711C8.64464 8.76957 8.75 8.51522 8.75 8.25C8.75 7.98478 8.64464 7.73043 8.45711 7.54289C8.26957 7.35536 8.01522 7.25 7.75 7.25C7.48478 7.25 7.23043 7.35536 7.04289 7.54289C6.85536 7.73043 6.75 7.98478 6.75 8.25C6.75 8.51522 6.85536 8.76957 7.04289 8.95711C7.23043 9.14464 7.48478 9.25 7.75 9.25ZM11.25 7.5C11.0511 7.5 10.8603 7.57902 10.7197 7.71967C10.579 7.86032 10.5 8.05109 10.5 8.25C10.5 8.44891 10.579 8.63968 10.7197 8.78033C10.8603 8.92098 11.0511 9 11.25 9H16.75C16.9489 9 17.1397 8.92098 17.2803 8.78033C17.421 8.63968 17.5 8.44891 17.5 8.25C17.5 8.05109 17.421 7.86032 17.2803 7.71967C17.1397 7.57902 16.9489 7.5 16.75 7.5H11.25ZM11.25 11.25C11.0511 11.25 10.8603 11.329 10.7197 11.4697C10.579 11.6103 10.5 11.8011 10.5 12C10.5 12.1989 10.579 12.3897 10.7197 12.5303C10.8603 12.671 11.0511 12.75 11.25 12.75H16.75C16.9489 12.75 17.1397 12.671 17.2803 12.5303C17.421 12.3897 17.5 12.1989 17.5 12C17.5 11.8011 17.421 11.6103 17.2803 11.4697C17.1397 11.329 16.9489 11.25 16.75 11.25H11.25ZM6.75 12C6.75 12.2652 6.85536 12.5196 7.04289 12.7071C7.23043 12.8946 7.48478 13 7.75 13C8.01522 13 8.26957 12.8946 8.45711 12.7071C8.64464 12.5196 8.75 12.2652 8.75 12C8.75 11.7348 8.64464 11.4804 8.45711 11.2929C8.26957 11.1054 8.01522 11 7.75 11C7.48478 11 7.23043 11.1054 7.04289 11.2929C6.85536 11.4804 6.75 11.7348 6.75 12ZM7.75 16.75C8.01522 16.75 8.26957 16.6446 8.45711 16.4571C8.64464 16.2696 8.75 16.0152 8.75 15.75C8.75 15.4848 8.64464 15.2304 8.45711 15.0429C8.26957 14.8554 8.01522 14.75 7.75 14.75C7.48478 14.75 7.23043 14.8554 7.04289 15.0429C6.85536 15.2304 6.75 15.4848 6.75 15.75C6.75 16.0152 6.85536 16.2696 7.04289 16.4571C7.23043 16.6446 7.48478 16.75 7.75 16.75ZM19.1 12.67L13.197 18.572C12.8531 18.9161 12.6091 19.3471 12.491 19.819L12.033 21.65C11.9875 21.8322 11.9899 22.023 12.04 22.204C12.0902 22.385 12.1864 22.5498 12.3192 22.6826C12.452 22.8153 12.617 22.9114 12.798 22.9614C12.979 23.0114 13.1699 23.0137 13.352 22.968L15.182 22.511C15.6544 22.3929 16.0858 22.1485 16.43 21.804L22.332 15.902C22.7441 15.4701 22.9709 14.8941 22.9639 14.2971C22.9569 13.7002 22.7166 13.1297 22.2945 12.7075C21.8723 12.2854 21.3018 12.0451 20.7049 12.0381C20.1079 12.0311 19.5319 12.2579 19.1 12.67V12.67Z" fill="white"/>
</svg>
