<svg width="24" height="20" viewBox="0 0 24 20" fill="none" xmlns="http://www.w3.org/2000/svg">
<g clip-path="url(#clip0_3828_56873)">
<path d="M5.4 6.40039C3.7425 6.40039 2.4 5.05789 2.4 3.40039C2.4 1.74289 3.7425 0.400391 5.4 0.400391C7.0575 0.400391 8.4 1.74289 8.4 3.40039C8.4 5.05789 7.0575 6.40039 5.4 6.40039ZM19.2 6.40039C17.5425 6.40039 16.2 5.05789 16.2 3.40039C16.2 1.74289 17.5425 0.400391 19.2 0.400391C20.8575 0.400391 22.2 1.74289 22.2 3.40039C22.2 5.05789 20.8575 6.40039 19.2 6.40039ZM0 11.6016C0 9.39289 1.7925 7.60039 4.00125 7.60039H5.6025C6.19875 7.60039 6.765 7.73164 7.275 7.96414C7.22625 8.23414 7.20375 8.51539 7.20375 8.80039C7.20375 10.2329 7.83375 11.5191 8.8275 12.4004H0.79875C0.36 12.4004 0 12.0404 0 11.6016ZM15.1988 12.4004H15.1725C16.17 11.5191 16.7963 10.2329 16.7963 8.80039C16.7963 8.51539 16.77 8.23789 16.725 7.96414C17.235 7.72789 17.8013 7.60039 18.3975 7.60039H19.9988C22.2075 7.60039 24 9.39289 24 11.6016C24 12.0441 23.64 12.4004 23.2013 12.4004H15.1988ZM15.6 8.80039C15.6 10.7879 13.9875 12.4004 12 12.4004C10.0125 12.4004 8.4 10.7879 8.4 8.80039C8.4 6.81289 10.0125 5.20039 12 5.20039C13.9875 5.20039 15.6 6.81289 15.6 8.80039ZM4.8 18.5991C4.8 15.8391 7.03875 13.6004 9.79875 13.6004H14.2013C16.9613 13.6004 19.2 15.8391 19.2 18.5991C19.2 19.1504 18.7537 19.6004 18.1987 19.6004H5.80125C5.25 19.6004 4.8 19.1541 4.8 18.5991Z" fill="#004D7D"/>
</g>
<defs>
<clipPath id="clip0_3828_56873">
<rect width="24" height="19.2" fill="white" transform="translate(0 0.400391)"/>
</clipPath>
</defs>
</svg>
