<svg width="625" height="1021" viewBox="0 0 625 1021" fill="none" xmlns="http://www.w3.org/2000/svg">
<g opacity="0.68">
<g opacity="0.8" clip-path="url(#clip0_1_96)">
<path d="M331.554 816.415L331.32 816.639C327.624 820.183 323.584 823.348 319.26 826.087C314.438 829.213 309.061 831.381 303.423 832.475C301.26 832.858 299.065 833.03 296.869 832.989C290.732 832.835 284.772 830.895 279.716 827.405C278.802 826.779 278 826.165 277.331 825.607C277.224 825.534 277.123 825.451 277.03 825.361L220.189 768.405L238.445 750.011L295.599 807.28L295.532 807.347L296.646 808.464L297.07 808.888C297.85 809.637 298.641 810.329 299.433 810.966L300.124 811.502C303.196 813.828 306.673 815.563 310.377 816.617C316.151 818.183 322.209 818.39 328.076 817.22C328.756 817.097 329.38 816.952 329.949 816.818C330.517 816.684 331.108 816.538 331.554 816.415Z" fill="#F1F1F2"/>
<path d="M380.861 767.388L336.524 811.848L330.773 813.434L329.313 813.813L327.564 814.182C322.174 815.254 316.61 815.071 311.302 813.646C308.097 812.734 305.078 811.259 302.386 809.29L362.571 748.984L380.861 767.388Z" fill="#979797"/>
<path d="M355.84 675.578L356.007 675.756C358.687 678.558 361.081 681.623 363.151 684.903C365.509 688.568 367.147 692.65 367.977 696.931C368.271 698.574 368.402 700.242 368.367 701.912C368.256 706.569 366.796 711.093 364.165 714.933V714.933C363.686 715.637 363.229 716.24 362.806 716.754L362.616 716.977L319.528 760.152L305.63 746.27L348.93 702.894L349.788 702.046L350.1 701.722C350.654 701.154 351.179 700.557 351.671 699.935L352.128 699.365C353.893 697.024 355.205 694.373 355.996 691.548C357.173 687.175 357.329 682.589 356.453 678.146C356.364 677.633 356.252 677.152 356.152 676.728C356.052 676.304 355.929 675.913 355.84 675.578Z" fill="#F1F1F2"/>
<path d="M318.771 638.154L352.385 671.825L353.578 676.192C353.689 676.594 353.779 676.951 353.868 677.308C353.957 677.666 354.068 678.202 354.146 678.637C354.96 682.731 354.823 686.957 353.745 690.989C353.042 693.423 351.91 695.712 350.402 697.746L304.873 652.069L318.771 638.154Z" fill="#979797"/>
<path d="M249.59 730.434L249.356 730.188C245.779 726.449 242.587 722.36 239.827 717.981C236.672 713.095 234.485 707.647 233.385 701.933C232.99 699.722 232.814 697.478 232.861 695.232C232.903 693.569 233.071 691.912 233.362 690.274C234.184 685.822 235.927 681.592 238.478 677.855V677.855C239.037 677.016 239.639 676.207 240.284 675.432L240.54 675.119L298.072 617.56L316.618 636.143L258.841 694.037L258.774 693.97L257.659 695.087C257.514 695.221 257.369 695.366 257.236 695.512C256.478 696.293 255.787 697.097 255.14 697.902C254.962 698.136 254.773 698.359 254.605 698.594C252.253 701.708 250.499 705.234 249.434 708.991C247.859 714.84 247.653 720.974 248.832 726.916C248.955 727.608 249.1 728.245 249.233 728.814C249.367 729.384 249.49 729.976 249.59 730.434Z" fill="#F1F1F2"/>
<path d="M299.088 780.378L254.227 735.438L252.634 729.608C252.489 729.083 252.355 728.592 252.244 728.134C252.132 727.676 251.987 726.939 251.876 726.358C250.793 720.895 250.98 715.254 252.422 709.875C253.339 706.633 254.826 703.581 256.813 700.862L317.634 761.794L299.088 780.378Z" fill="#979797"/>
<path d="M271.468 578.585L271.713 578.35C275.406 574.808 279.442 571.643 283.762 568.902C288.584 565.779 293.961 563.614 299.599 562.525C301.76 562.128 303.956 561.952 306.153 562.001C307.798 562.033 309.438 562.197 311.057 562.492C315.451 563.308 319.627 565.035 323.316 567.562V567.562C324.242 568.199 325.044 568.802 325.713 569.36L326.003 569.606L382.844 626.562L364.543 644.978L307.39 587.687L307.457 587.62L306.342 586.503C306.197 586.358 306.052 586.224 305.919 586.078C305.138 585.33 304.347 584.649 303.556 584.012C303.322 583.823 303.099 583.644 302.865 583.476C299.793 581.147 296.316 579.408 292.611 578.35C286.835 576.795 280.78 576.589 274.912 577.747C274.236 577.881 273.612 578.015 273.04 578.149C272.449 578.317 271.881 578.451 271.468 578.585Z" fill="#F1F1F2"/>
<path d="M222.163 627.601L266.532 583.152L272.283 581.566L273.744 581.187C274.345 581.042 274.925 580.919 275.493 580.818C280.887 579.746 286.454 579.929 291.766 581.354C294.971 582.267 297.99 583.742 300.682 585.71L240.497 646.016L222.163 627.601Z" fill="#798892"/>
<path d="M182.552 730.254L182.318 730.02C178.784 726.314 175.626 722.266 172.889 717.936C169.772 713.104 167.611 707.716 166.525 702.067C166.127 699.901 165.951 697.701 166.001 695.5C166.034 693.852 166.198 692.208 166.491 690.586C167.302 686.182 169.026 681.997 171.551 678.301H171.573C172.209 677.375 172.811 676.57 173.368 675.9L173.613 675.599L230.454 618.643L248.811 637.003L191.635 694.26L191.568 694.193L190.454 695.31C190.309 695.444 190.175 695.589 190.03 695.735C189.283 696.505 188.604 697.298 187.968 698.091C187.779 698.325 187.6 698.549 187.433 698.783C185.106 701.864 183.371 705.352 182.318 709.069C180.764 714.853 180.559 720.916 181.716 726.792C181.849 727.477 181.983 728.103 182.117 728.669C182.284 729.272 182.418 729.808 182.552 730.254Z" fill="#F1F1F2"/>
<path d="M231.468 779.663L187.11 735.204L185.527 729.441C185.382 728.927 185.26 728.436 185.148 727.978C185.037 727.52 184.881 726.806 184.78 726.236C183.71 720.832 183.893 715.253 185.315 709.931C186.225 706.719 187.697 703.694 189.662 700.997L249.847 761.303L231.468 779.663Z" fill="#798892"/>
<path d="M420.461 664.611L420.684 664.846C424.232 668.548 427.402 672.596 430.146 676.929C433.266 681.762 435.43 687.149 436.522 692.799C436.904 694.966 437.076 697.165 437.034 699.366C436.881 705.515 434.945 711.488 431.462 716.553C430.837 717.469 430.224 718.273 429.667 718.954L429.422 719.245L372.58 776.201L354.235 757.83L411.389 700.561L411.456 700.628L412.57 699.511L412.994 699.087C413.74 698.305 414.431 697.512 415.067 696.719L415.602 696.027C417.919 692.945 419.65 689.462 420.706 685.752C422.226 679.984 422.405 673.944 421.23 668.096C421.096 667.418 420.963 666.793 420.829 666.219C420.729 665.594 420.584 665.058 420.461 664.611Z" fill="#F1F1F2"/>
<path d="M371.531 615.204L415.901 659.664L417.484 665.426C417.618 665.951 417.751 666.432 417.852 666.889C417.952 667.347 418.119 668.006 418.231 668.643C419.301 674.043 419.118 679.618 417.696 684.937C416.786 688.151 415.31 691.177 413.338 693.871L353.153 633.564L371.531 615.204Z" fill="#979797"/>
</g>
<g opacity="0.8" clip-path="url(#clip1_1_96)">
<path d="M507.554 629.415L507.32 629.639C503.624 633.183 499.584 636.348 495.26 639.087C490.438 642.213 485.061 644.381 479.423 645.475C477.26 645.858 475.065 646.03 472.869 645.989C466.732 645.835 460.772 643.895 455.716 640.405C454.802 639.779 454 639.165 453.331 638.607C453.224 638.534 453.123 638.451 453.03 638.361L396.189 581.405L414.445 563.011L471.599 620.28L471.532 620.347L472.646 621.464L473.07 621.888C473.85 622.637 474.641 623.329 475.433 623.966L476.124 624.502C479.196 626.828 482.673 628.563 486.377 629.617C492.151 631.183 498.209 631.39 504.076 630.22C504.756 630.097 505.38 629.952 505.949 629.818C506.517 629.684 507.108 629.538 507.554 629.415Z" fill="#F1F1F2"/>
<path d="M556.861 580.388L512.524 624.848L506.773 626.434L505.313 626.813L503.564 627.182C498.174 628.254 492.61 628.071 487.302 626.646C484.097 625.734 481.078 624.259 478.386 622.29L538.571 561.984L556.861 580.388Z" fill="#979797"/>
<path d="M531.84 488.578L532.007 488.756C534.687 491.558 537.081 494.623 539.151 497.903C541.509 501.568 543.147 505.65 543.977 509.931C544.271 511.574 544.402 513.242 544.367 514.912C544.256 519.569 542.796 524.093 540.165 527.933V527.933C539.686 528.637 539.229 529.24 538.806 529.754L538.616 529.977L495.528 573.152L481.63 559.27L524.93 515.894L525.788 515.046L526.1 514.722C526.654 514.154 527.179 513.557 527.671 512.935L528.128 512.365C529.893 510.024 531.205 507.373 531.996 504.548C533.173 500.175 533.329 495.589 532.453 491.146C532.364 490.633 532.252 490.152 532.152 489.728C532.052 489.304 531.929 488.913 531.84 488.578Z" fill="#F1F1F2"/>
<path d="M494.771 451.154L528.385 484.825L529.578 489.192C529.689 489.594 529.779 489.951 529.868 490.308C529.957 490.666 530.068 491.202 530.146 491.637C530.96 495.731 530.823 499.957 529.745 503.989C529.042 506.423 527.91 508.712 526.402 510.746L480.873 465.069L494.771 451.154Z" fill="#979797"/>
<path d="M425.59 543.434L425.356 543.188C421.779 539.449 418.587 535.36 415.827 530.981C412.672 526.095 410.485 520.647 409.385 514.933C408.99 512.722 408.814 510.478 408.861 508.232C408.903 506.569 409.07 504.912 409.362 503.274C410.184 498.822 411.927 494.592 414.478 490.855V490.855C415.037 490.016 415.639 489.207 416.284 488.432L416.54 488.119L474.072 430.56L492.618 449.143L434.841 507.037L434.774 506.97L433.659 508.087C433.514 508.221 433.369 508.366 433.236 508.512C432.478 509.293 431.787 510.097 431.14 510.902C430.962 511.136 430.773 511.359 430.605 511.594C428.253 514.708 426.499 518.234 425.434 521.991C423.859 527.84 423.653 533.974 424.832 539.916C424.955 540.608 425.1 541.245 425.233 541.814C425.367 542.384 425.49 542.976 425.59 543.434Z" fill="#F1F1F2"/>
<path d="M475.088 593.378L430.227 548.438L428.634 542.608C428.489 542.083 428.355 541.592 428.244 541.134C428.132 540.676 427.987 539.939 427.876 539.358C426.793 533.895 426.98 528.254 428.422 522.875C429.339 519.633 430.826 516.581 432.813 513.862L493.634 574.794L475.088 593.378Z" fill="#979797"/>
<path d="M447.468 391.585L447.713 391.35C451.406 387.808 455.442 384.643 459.762 381.902C464.584 378.779 469.961 376.614 475.599 375.525C477.76 375.128 479.956 374.952 482.153 375.001C483.798 375.033 485.438 375.197 487.057 375.492C491.451 376.308 495.627 378.035 499.316 380.562V380.562C500.242 381.199 501.044 381.802 501.713 382.36L502.003 382.606L558.844 439.562L540.543 457.978L483.39 400.687L483.457 400.62L482.342 399.503C482.197 399.358 482.052 399.224 481.919 399.078C481.138 398.33 480.347 397.649 479.556 397.012C479.322 396.823 479.099 396.644 478.865 396.476C475.793 394.147 472.316 392.408 468.611 391.35C462.835 389.795 456.78 389.589 450.912 390.747C450.236 390.881 449.612 391.015 449.04 391.149C448.449 391.317 447.881 391.451 447.468 391.585Z" fill="#F1F1F2"/>
<path d="M398.163 440.601L442.532 396.152L448.283 394.566L449.744 394.187C450.345 394.042 450.925 393.919 451.493 393.818C456.887 392.746 462.454 392.929 467.766 394.354C470.971 395.267 473.99 396.742 476.682 398.71L416.497 459.016L398.163 440.601Z" fill="#798892"/>
<path d="M358.552 543.254L358.318 543.02C354.784 539.314 351.626 535.266 348.889 530.936C345.772 526.104 343.611 520.716 342.525 515.067C342.127 512.901 341.951 510.701 342.001 508.5C342.034 506.852 342.198 505.208 342.491 503.586C343.302 499.182 345.026 494.997 347.551 491.301H347.573C348.209 490.375 348.811 489.57 349.368 488.9L349.613 488.599L406.454 431.643L424.811 450.003L367.635 507.26L367.568 507.193L366.454 508.31C366.309 508.444 366.175 508.589 366.03 508.735C365.283 509.505 364.604 510.298 363.968 511.091C363.779 511.325 363.6 511.549 363.433 511.783C361.106 514.864 359.371 518.352 358.318 522.069C356.764 527.853 356.559 533.916 357.716 539.792C357.849 540.477 357.983 541.103 358.117 541.669C358.284 542.272 358.418 542.808 358.552 543.254Z" fill="#F1F1F2"/>
<path d="M407.468 592.663L363.11 548.204L361.527 542.441C361.382 541.927 361.26 541.436 361.148 540.978C361.037 540.52 360.881 539.806 360.78 539.236C359.71 533.832 359.893 528.253 361.315 522.931C362.225 519.719 363.697 516.694 365.662 513.997L425.847 574.303L407.468 592.663Z" fill="#798892"/>
<path d="M596.461 477.611L596.684 477.846C600.232 481.548 603.402 485.596 606.146 489.929C609.266 494.762 611.43 500.149 612.522 505.799C612.904 507.966 613.076 510.165 613.034 512.366C612.881 518.515 610.945 524.488 607.462 529.553C606.837 530.469 606.224 531.273 605.667 531.954L605.422 532.245L548.58 589.201L530.235 570.83L587.389 513.561L587.456 513.628L588.57 512.511L588.994 512.087C589.74 511.305 590.431 510.512 591.067 509.719L591.602 509.027C593.919 505.945 595.65 502.462 596.706 498.752C598.226 492.984 598.405 486.944 597.23 481.096C597.096 480.418 596.963 479.793 596.829 479.219C596.729 478.594 596.584 478.058 596.461 477.611Z" fill="#F1F1F2"/>
<path d="M547.531 428.204L591.901 472.664L593.484 478.426C593.618 478.951 593.751 479.432 593.852 479.889C593.952 480.347 594.119 481.006 594.231 481.643C595.301 487.043 595.118 492.618 593.696 497.937C592.786 501.151 591.31 504.177 589.338 506.871L529.153 446.564L547.531 428.204Z" fill="#979797"/>
</g>
<g opacity="0.8" clip-path="url(#clip2_1_96)">
<path d="M503.554 1004.42L503.32 1004.64C499.624 1008.18 495.584 1011.35 491.26 1014.09C486.438 1017.21 481.061 1019.38 475.423 1020.47C473.26 1020.86 471.065 1021.03 468.869 1020.99C462.732 1020.84 456.772 1018.9 451.716 1015.4C450.802 1014.78 450 1014.17 449.331 1013.61C449.224 1013.53 449.123 1013.45 449.03 1013.36L392.189 956.405L410.445 938.011L467.599 995.28L467.532 995.347L468.646 996.464L469.07 996.888C469.85 997.637 470.641 998.329 471.433 998.966L472.124 999.502C475.196 1001.83 478.673 1003.56 482.377 1004.62C488.151 1006.18 494.209 1006.39 500.076 1005.22C500.756 1005.1 501.38 1004.95 501.949 1004.82C502.517 1004.68 503.108 1004.54 503.554 1004.42Z" fill="#F1F1F2"/>
<path d="M552.861 955.388L508.524 999.848L502.773 1001.43L501.313 1001.81L499.564 1002.18C494.174 1003.25 488.61 1003.07 483.302 1001.65C480.097 1000.73 477.078 999.259 474.386 997.29L534.571 936.984L552.861 955.388Z" fill="#979797"/>
<path d="M527.84 863.578L528.007 863.756C530.687 866.558 533.081 869.622 535.151 872.903C537.509 876.568 539.147 880.65 539.977 884.931C540.271 886.574 540.402 888.242 540.367 889.912C540.256 894.569 538.796 899.093 536.165 902.933V902.933C535.686 903.637 535.229 904.24 534.806 904.754L534.616 904.977L491.528 948.152L477.63 934.27L520.93 890.894L521.788 890.046L522.1 889.722C522.654 889.154 523.179 888.557 523.671 887.935L524.128 887.365C525.893 885.024 527.205 882.373 527.996 879.548C529.173 875.175 529.329 870.589 528.453 866.146C528.364 865.633 528.252 865.152 528.152 864.728C528.052 864.304 527.929 863.913 527.84 863.578Z" fill="#F1F1F2"/>
<path d="M490.771 826.154L524.385 859.825L525.578 864.192C525.689 864.594 525.779 864.951 525.868 865.308C525.957 865.666 526.068 866.202 526.146 866.637C526.96 870.731 526.823 874.957 525.745 878.989C525.042 881.423 523.91 883.712 522.402 885.746L476.873 840.069L490.771 826.154Z" fill="#979797"/>
<path d="M421.59 918.434L421.356 918.188C417.779 914.449 414.587 910.36 411.827 905.981C408.672 901.095 406.485 895.647 405.385 889.933C404.99 887.722 404.814 885.478 404.861 883.232C404.903 881.569 405.07 879.912 405.362 878.274C406.184 873.822 407.927 869.592 410.478 865.855V865.855C411.037 865.016 411.639 864.207 412.284 863.432L412.54 863.119L470.072 805.56L488.618 824.143L430.841 882.037L430.774 881.97L429.659 883.087C429.514 883.221 429.369 883.366 429.236 883.512C428.478 884.293 427.787 885.097 427.14 885.902C426.962 886.136 426.773 886.359 426.605 886.594C424.253 889.708 422.499 893.234 421.434 896.991C419.859 902.84 419.653 908.974 420.832 914.916C420.955 915.608 421.1 916.245 421.233 916.814C421.367 917.384 421.49 917.976 421.59 918.434Z" fill="#F1F1F2"/>
<path d="M471.088 968.378L426.227 923.438L424.634 917.608C424.489 917.083 424.355 916.592 424.244 916.134C424.132 915.676 423.987 914.939 423.876 914.358C422.793 908.895 422.98 903.254 424.422 897.875C425.339 894.633 426.826 891.581 428.813 888.862L489.634 949.794L471.088 968.378Z" fill="#979797"/>
<path d="M443.468 766.585L443.713 766.35C447.406 762.808 451.442 759.643 455.762 756.902C460.584 753.779 465.961 751.614 471.599 750.525C473.76 750.128 475.956 749.952 478.153 750.001C479.798 750.033 481.438 750.197 483.057 750.492C487.451 751.308 491.627 753.035 495.316 755.562V755.562C496.242 756.199 497.044 756.802 497.713 757.36L498.003 757.606L554.844 814.562L536.543 832.978L479.39 775.687L479.457 775.62L478.342 774.503C478.197 774.358 478.052 774.224 477.919 774.078C477.138 773.33 476.347 772.649 475.556 772.012C475.322 771.823 475.099 771.644 474.865 771.476C471.793 769.147 468.316 767.408 464.611 766.35C458.835 764.795 452.78 764.589 446.912 765.747C446.236 765.881 445.612 766.015 445.04 766.149C444.449 766.317 443.881 766.451 443.468 766.585Z" fill="#F1F1F2"/>
<path d="M394.163 815.601L438.532 771.152L444.283 769.566L445.744 769.187C446.345 769.042 446.925 768.919 447.493 768.818C452.887 767.746 458.454 767.929 463.766 769.354C466.971 770.267 469.99 771.742 472.682 773.71L412.497 834.016L394.163 815.601Z" fill="#798892"/>
<path d="M354.552 918.254L354.318 918.02C350.784 914.314 347.626 910.266 344.889 905.936C341.772 901.104 339.611 895.716 338.525 890.067C338.127 887.901 337.951 885.701 338.001 883.5C338.034 881.852 338.198 880.208 338.491 878.586C339.302 874.182 341.026 869.997 343.551 866.301H343.573C344.209 865.375 344.811 864.57 345.368 863.9L345.613 863.599L402.454 806.643L420.811 825.003L363.635 882.26L363.568 882.193L362.454 883.31C362.309 883.444 362.175 883.589 362.03 883.735C361.283 884.505 360.604 885.298 359.968 886.091C359.779 886.325 359.6 886.549 359.433 886.783C357.106 889.864 355.371 893.352 354.318 897.069C352.764 902.853 352.559 908.916 353.716 914.792C353.849 915.477 353.983 916.103 354.117 916.669C354.284 917.272 354.418 917.808 354.552 918.254Z" fill="#F1F1F2"/>
<path d="M403.468 967.663L359.11 923.204L357.527 917.441C357.382 916.927 357.26 916.436 357.148 915.978C357.037 915.52 356.881 914.806 356.78 914.236C355.71 908.832 355.893 903.253 357.315 897.931C358.225 894.719 359.697 891.694 361.662 888.997L421.847 949.303L403.468 967.663Z" fill="#798892"/>
<path d="M592.461 852.611L592.684 852.846C596.232 856.548 599.402 860.596 602.146 864.929C605.266 869.762 607.43 875.149 608.522 880.799C608.904 882.966 609.076 885.165 609.034 887.366C608.881 893.515 606.945 899.488 603.462 904.553C602.837 905.469 602.224 906.273 601.667 906.954L601.422 907.245L544.58 964.201L526.235 945.83L583.389 888.561L583.456 888.628L584.57 887.511L584.994 887.087C585.74 886.305 586.431 885.512 587.067 884.719L587.602 884.027C589.919 880.945 591.65 877.462 592.706 873.752C594.226 867.984 594.405 861.944 593.23 856.096C593.096 855.418 592.963 854.793 592.829 854.219C592.729 853.594 592.584 853.058 592.461 852.611Z" fill="#F1F1F2"/>
<path d="M543.531 803.204L587.901 847.664L589.484 853.426C589.618 853.951 589.751 854.432 589.852 854.889C589.952 855.347 590.119 856.006 590.231 856.643C591.301 862.043 591.118 867.618 589.696 872.937C588.786 876.151 587.31 879.177 585.338 881.871L525.153 821.564L543.531 803.204Z" fill="#979797"/>
</g>
</g>
<g opacity="0.68">
<g opacity="0.8" clip-path="url(#clip3_1_96)">
<path d="M165.554 254.415L165.319 254.639C161.624 258.183 157.584 261.348 153.26 264.087C148.438 267.213 143.061 269.381 137.423 270.475C135.26 270.858 133.065 271.03 130.869 270.989C124.732 270.835 118.772 268.895 113.716 265.405C112.802 264.779 112 264.165 111.331 263.607C111.224 263.534 111.123 263.451 111.03 263.361L54.1888 206.405L72.445 188.011L129.599 245.28L129.532 245.347L130.646 246.464L131.07 246.888C131.85 247.637 132.641 248.329 133.433 248.966L134.124 249.502C137.196 251.828 140.673 253.563 144.377 254.616C150.151 256.183 156.209 256.39 162.076 255.22C162.756 255.097 163.38 254.952 163.949 254.818C164.517 254.683 165.108 254.538 165.554 254.415Z" fill="#F1F1F2"/>
<path d="M214.861 205.388L170.524 249.848L164.773 251.434L163.313 251.813L161.564 252.182C156.174 253.254 150.61 253.071 145.302 251.646C142.097 250.734 139.078 249.259 136.386 247.29L196.571 186.984L214.861 205.388Z" fill="#979797"/>
<path d="M189.84 113.578L190.007 113.756C192.687 116.558 195.081 119.622 197.151 122.903C199.509 126.568 201.147 130.65 201.977 134.931C202.271 136.574 202.402 138.242 202.367 139.912C202.256 144.569 200.796 149.093 198.165 152.933V152.933C197.686 153.637 197.229 154.24 196.806 154.754L196.616 154.977L153.528 198.152L139.63 184.27L182.93 140.894L183.788 140.046L184.1 139.722C184.654 139.154 185.179 138.557 185.671 137.935L186.128 137.365C187.893 135.024 189.205 132.373 189.996 129.548C191.173 125.175 191.329 120.589 190.453 116.146C190.364 115.633 190.252 115.152 190.152 114.728C190.052 114.304 189.929 113.913 189.84 113.578Z" fill="#F1F1F2"/>
<path d="M152.771 76.1537L186.385 109.825L187.578 114.192C187.689 114.594 187.779 114.951 187.868 115.308C187.957 115.666 188.068 116.202 188.146 116.637C188.96 120.731 188.823 124.957 187.745 128.989C187.042 131.423 185.91 133.712 184.402 135.746L138.873 90.0689L152.771 76.1537Z" fill="#979797"/>
<path d="M83.59 168.434L83.3559 168.188C79.7792 164.449 76.5867 160.36 73.8266 155.981C70.6721 151.095 68.4851 145.647 67.3846 139.933C66.9895 137.722 66.814 135.478 66.8608 133.232C66.9028 131.569 67.0705 129.912 67.3623 128.274C68.1844 123.822 69.927 119.592 72.478 115.855V115.855C73.0366 115.016 73.6393 114.207 74.2836 113.432L74.5399 113.119L132.072 55.5597L150.618 74.1431L92.8407 132.037L92.7738 131.97L91.6592 133.087C91.5143 133.221 91.3695 133.366 91.2357 133.512C90.4778 134.293 89.7868 135.097 89.1404 135.902C88.9621 136.136 88.7726 136.359 88.6054 136.594C86.2528 139.708 84.4992 143.234 83.4339 146.991C81.8593 152.84 81.6533 158.974 82.8321 164.916C82.9547 165.608 83.0996 166.245 83.2333 166.814C83.3671 167.384 83.4897 167.976 83.59 168.434Z" fill="#F1F1F2"/>
<path d="M133.088 218.377L88.2275 173.438L86.6337 167.608C86.4888 167.083 86.355 166.592 86.2436 166.134C86.1321 165.676 85.9872 164.939 85.8758 164.358C84.793 158.895 84.9799 153.254 86.4219 147.875C87.339 144.633 88.826 141.581 90.8132 138.862L151.634 199.794L133.088 218.377Z" fill="#979797"/>
<path d="M105.468 16.5848L105.713 16.3503C109.406 12.8075 113.442 9.6425 117.762 6.90226C122.584 3.77937 127.961 1.61448 133.599 0.525395C135.76 0.12769 137.956 -0.0481827 140.153 0.000504721C141.798 0.0329475 143.438 0.197268 145.057 0.491892C149.451 1.308 153.627 3.03495 157.316 5.56211V5.56211C158.242 6.19868 159.044 6.80175 159.713 7.36014L160.003 7.60584L216.844 64.5621L198.543 82.9779L141.39 25.6866L141.457 25.6196L140.342 24.5029C140.197 24.3577 140.052 24.2237 139.919 24.0785C139.138 23.3302 138.347 22.649 137.556 22.0124C137.322 21.8226 137.099 21.6439 136.865 21.4764C133.793 19.1466 130.316 17.4085 126.611 16.3503C120.835 14.7951 114.78 14.5888 108.912 15.7472C108.236 15.8812 107.612 16.0153 107.04 16.1493C106.449 16.3168 105.881 16.4508 105.468 16.5848Z" fill="#F1F1F2"/>
<path d="M56.1627 65.6005L100.532 21.1523L106.283 19.5665L107.744 19.1868C108.345 19.0416 108.925 18.9187 109.493 18.8182C114.887 17.7458 120.454 17.9292 125.766 19.3543C128.971 20.2674 131.99 21.742 134.682 23.7097L74.4968 84.0163L56.1627 65.6005Z" fill="#798892"/>
<path d="M16.5516 168.254L16.3175 168.02C12.7842 164.314 9.62581 160.266 6.88852 155.936C3.77192 151.104 1.61139 145.716 0.524503 140.067C0.126982 137.901 -0.0485414 135.701 0.00066983 133.5C0.033569 131.852 0.197554 130.208 0.491067 128.586C1.30172 124.182 3.02551 119.997 5.55107 116.301H5.57336C6.20865 115.375 6.8105 114.57 7.36777 113.9L7.61297 113.599L64.4544 56.6426L82.8109 75.0026L25.6351 132.26L25.5682 132.193L24.4536 133.31C24.3088 133.444 24.175 133.589 24.0301 133.735C23.2834 134.505 22.6035 135.298 21.9682 136.091C21.7787 136.325 21.6004 136.549 21.4332 136.783C19.1058 139.864 17.3711 143.352 16.3175 147.069C14.7644 152.853 14.5585 158.916 15.7157 164.792C15.8494 165.477 15.9831 166.103 16.1169 166.669C16.2841 167.272 16.4178 167.808 16.5516 168.254Z" fill="#F1F1F2"/>
<path d="M65.4683 217.663L21.1097 173.204L19.527 167.441C19.3821 166.927 19.2595 166.436 19.1481 165.978C19.0366 165.52 18.8806 164.806 18.7803 164.236C17.7101 158.832 17.8931 153.253 19.3153 147.931C20.2255 144.719 21.6972 141.694 23.662 138.997L83.8471 199.303L65.4683 217.663Z" fill="#798892"/>
<path d="M254.461 102.611L254.684 102.846C258.232 106.548 261.402 110.596 264.146 114.929C267.266 119.761 269.43 125.149 270.522 130.799C270.904 132.966 271.076 135.165 271.034 137.366C270.881 143.515 268.945 149.488 265.461 154.553C264.837 155.469 264.224 156.273 263.667 156.954L263.422 157.245L206.58 214.201L188.235 195.83L245.389 138.561L245.456 138.628L246.57 137.511L246.994 137.087C247.74 136.305 248.431 135.512 249.067 134.719L249.602 134.027C251.919 130.945 253.65 127.462 254.706 123.752C256.226 117.984 256.405 111.944 255.23 106.096C255.096 105.418 254.963 104.793 254.829 104.219C254.728 103.594 254.584 103.058 254.461 102.611Z" fill="#F1F1F2"/>
<path d="M205.531 53.2044L249.901 97.6638L251.484 103.426C251.618 103.951 251.751 104.432 251.852 104.889C251.952 105.347 252.119 106.006 252.231 106.643C253.301 112.043 253.118 117.618 251.696 122.937C250.786 126.151 249.31 129.177 247.338 131.871L187.153 71.5644L205.531 53.2044Z" fill="#979797"/>
</g>
<g opacity="0.8" clip-path="url(#clip4_1_96)">
<path d="M519.554 255.415L519.32 255.639C515.624 259.183 511.584 262.348 507.26 265.087C502.438 268.213 497.061 270.381 491.423 271.475C489.26 271.858 487.065 272.03 484.869 271.989C478.732 271.835 472.772 269.895 467.716 266.405C466.802 265.779 466 265.165 465.331 264.607C465.224 264.534 465.123 264.451 465.03 264.361L408.189 207.405L426.445 189.011L483.599 246.28L483.532 246.347L484.646 247.464L485.07 247.888C485.85 248.637 486.641 249.329 487.433 249.966L488.124 250.502C491.196 252.828 494.673 254.563 498.377 255.616C504.151 257.183 510.209 257.39 516.076 256.22C516.756 256.097 517.38 255.952 517.949 255.818C518.517 255.683 519.108 255.538 519.554 255.415Z" fill="#F1F1F2"/>
<path d="M568.861 206.388L524.524 250.848L518.773 252.434L517.313 252.813L515.564 253.182C510.174 254.254 504.61 254.071 499.302 252.646C496.097 251.734 493.078 250.259 490.386 248.29L550.571 187.984L568.861 206.388Z" fill="#979797"/>
<path d="M543.84 114.578L544.007 114.756C546.687 117.558 549.081 120.622 551.151 123.903C553.509 127.568 555.147 131.65 555.977 135.931C556.271 137.574 556.402 139.242 556.367 140.912C556.256 145.569 554.796 150.093 552.165 153.933V153.933C551.686 154.637 551.229 155.24 550.806 155.754L550.616 155.977L507.528 199.152L493.63 185.27L536.93 141.894L537.788 141.046L538.1 140.722C538.654 140.154 539.179 139.557 539.671 138.935L540.128 138.365C541.893 136.024 543.205 133.373 543.996 130.548C545.173 126.175 545.329 121.589 544.453 117.146C544.364 116.633 544.252 116.152 544.152 115.728C544.052 115.304 543.929 114.913 543.84 114.578Z" fill="#F1F1F2"/>
<path d="M506.771 77.1537L540.385 110.825L541.578 115.192C541.689 115.594 541.779 115.951 541.868 116.308C541.957 116.666 542.068 117.202 542.146 117.637C542.96 121.731 542.823 125.957 541.745 129.989C541.042 132.423 539.91 134.712 538.402 136.746L492.873 91.0689L506.771 77.1537Z" fill="#979797"/>
<path d="M437.59 169.434L437.356 169.188C433.779 165.449 430.587 161.36 427.827 156.981C424.672 152.095 422.485 146.647 421.385 140.933C420.99 138.722 420.814 136.478 420.861 134.232C420.903 132.569 421.07 130.912 421.362 129.274C422.184 124.822 423.927 120.592 426.478 116.855V116.855C427.037 116.016 427.639 115.207 428.284 114.432L428.54 114.119L486.072 56.5597L504.618 75.1431L446.841 133.037L446.774 132.97L445.659 134.087C445.514 134.221 445.369 134.366 445.236 134.512C444.478 135.293 443.787 136.097 443.14 136.902C442.962 137.136 442.773 137.359 442.605 137.594C440.253 140.708 438.499 144.234 437.434 147.991C435.859 153.84 435.653 159.974 436.832 165.916C436.955 166.608 437.1 167.245 437.233 167.814C437.367 168.384 437.49 168.976 437.59 169.434Z" fill="#F1F1F2"/>
<path d="M487.088 219.377L442.227 174.438L440.634 168.608C440.489 168.083 440.355 167.592 440.244 167.134C440.132 166.676 439.987 165.939 439.876 165.358C438.793 159.895 438.98 154.254 440.422 148.875C441.339 145.633 442.826 142.581 444.813 139.862L505.634 200.794L487.088 219.377Z" fill="#979797"/>
<path d="M459.468 17.5848L459.713 17.3503C463.406 13.8075 467.442 10.6425 471.762 7.90226C476.584 4.77937 481.961 2.61448 487.599 1.5254C489.76 1.12769 491.956 0.951817 494.153 1.0005C495.798 1.03295 497.438 1.19727 499.057 1.49189C503.451 2.308 507.627 4.03495 511.316 6.56211V6.56211C512.242 7.19868 513.044 7.80175 513.713 8.36014L514.003 8.60584L570.844 65.5621L552.543 83.9779L495.39 26.6866L495.457 26.6196L494.342 25.5029C494.197 25.3577 494.052 25.2237 493.919 25.0785C493.138 24.3302 492.347 23.649 491.556 23.0124C491.322 22.8226 491.099 22.6439 490.865 22.4764C487.793 20.1466 484.316 18.4085 480.611 17.3503C474.835 15.7951 468.78 15.5888 462.912 16.7472C462.236 16.8812 461.612 17.0153 461.04 17.1493C460.449 17.3168 459.881 17.4508 459.468 17.5848Z" fill="#F1F1F2"/>
<path d="M410.163 66.6005L454.532 22.1523L460.283 20.5665L461.744 20.1868C462.345 20.0416 462.925 19.9187 463.493 19.8182C468.887 18.7458 474.454 18.9292 479.766 20.3543C482.971 21.2674 485.99 22.742 488.682 24.7097L428.497 85.0163L410.163 66.6005Z" fill="#798892"/>
<path d="M370.552 169.254L370.318 169.02C366.784 165.314 363.626 161.266 360.889 156.936C357.772 152.104 355.611 146.716 354.525 141.067C354.127 138.901 353.951 136.701 354.001 134.5C354.034 132.852 354.198 131.208 354.491 129.586C355.302 125.182 357.026 120.997 359.551 117.301H359.573C360.209 116.375 360.811 115.57 361.368 114.9L361.613 114.599L418.454 57.6426L436.811 76.0026L379.635 133.26L379.568 133.193L378.454 134.31C378.309 134.444 378.175 134.589 378.03 134.735C377.283 135.505 376.604 136.298 375.968 137.091C375.779 137.325 375.6 137.549 375.433 137.783C373.106 140.864 371.371 144.352 370.318 148.069C368.764 153.853 368.559 159.916 369.716 165.792C369.849 166.477 369.983 167.103 370.117 167.669C370.284 168.272 370.418 168.808 370.552 169.254Z" fill="#F1F1F2"/>
<path d="M419.468 218.663L375.11 174.204L373.527 168.441C373.382 167.927 373.26 167.436 373.148 166.978C373.037 166.52 372.881 165.806 372.78 165.236C371.71 159.832 371.893 154.253 373.315 148.931C374.225 145.719 375.697 142.694 377.662 139.997L437.847 200.303L419.468 218.663Z" fill="#798892"/>
<path d="M608.461 103.611L608.684 103.846C612.232 107.548 615.402 111.596 618.146 115.929C621.266 120.761 623.43 126.149 624.522 131.799C624.904 133.966 625.076 136.165 625.034 138.366C624.881 144.515 622.945 150.488 619.462 155.553C618.837 156.469 618.224 157.273 617.667 157.954L617.422 158.245L560.58 215.201L542.235 196.83L599.389 139.561L599.456 139.628L600.57 138.511L600.994 138.087C601.74 137.305 602.431 136.512 603.067 135.719L603.602 135.027C605.919 131.945 607.65 128.462 608.706 124.752C610.226 118.984 610.405 112.944 609.23 107.096C609.096 106.418 608.963 105.793 608.829 105.219C608.729 104.594 608.584 104.058 608.461 103.611Z" fill="#F1F1F2"/>
<path d="M559.531 54.2044L603.901 98.6638L605.484 104.426C605.618 104.951 605.751 105.432 605.852 105.889C605.952 106.347 606.119 107.006 606.231 107.643C607.301 113.043 607.118 118.618 605.696 123.937C604.786 127.151 603.31 130.177 601.338 132.871L541.153 72.5644L559.531 54.2044Z" fill="#979797"/>
</g>
<g opacity="0.8" clip-path="url(#clip5_1_96)">
<path d="M337.554 442.415L337.32 442.639C333.624 446.183 329.584 449.348 325.26 452.087C320.438 455.213 315.061 457.381 309.423 458.475C307.26 458.858 305.065 459.03 302.869 458.989C296.732 458.835 290.772 456.895 285.716 453.405C284.802 452.779 284 452.165 283.331 451.607C283.224 451.534 283.123 451.451 283.03 451.361L226.189 394.405L244.445 376.011L301.599 433.28L301.532 433.347L302.646 434.464L303.07 434.888C303.85 435.637 304.641 436.329 305.433 436.966L306.124 437.502C309.196 439.828 312.673 441.563 316.377 442.616C322.151 444.183 328.209 444.39 334.076 443.22C334.756 443.097 335.38 442.952 335.949 442.818C336.517 442.683 337.108 442.538 337.554 442.415Z" fill="#F1F1F2"/>
<path d="M386.861 393.388L342.524 437.848L336.773 439.434L335.313 439.813L333.564 440.182C328.174 441.254 322.61 441.071 317.302 439.646C314.097 438.734 311.078 437.259 308.386 435.29L368.571 374.984L386.861 393.388Z" fill="#979797"/>
<path d="M361.84 301.578L362.007 301.756C364.687 304.558 367.081 307.622 369.151 310.903C371.509 314.568 373.147 318.65 373.977 322.931C374.271 324.574 374.402 326.242 374.367 327.912C374.256 332.569 372.796 337.093 370.165 340.933V340.933C369.686 341.637 369.229 342.24 368.806 342.754L368.616 342.977L325.528 386.152L311.63 372.27L354.93 328.894L355.788 328.046L356.1 327.722C356.654 327.154 357.179 326.557 357.671 325.935L358.128 325.365C359.893 323.024 361.205 320.373 361.996 317.548C363.173 313.175 363.329 308.589 362.453 304.146C362.364 303.633 362.252 303.152 362.152 302.728C362.052 302.304 361.929 301.913 361.84 301.578Z" fill="#F1F1F2"/>
<path d="M324.771 264.154L358.385 297.825L359.578 302.192C359.689 302.594 359.779 302.951 359.868 303.308C359.957 303.666 360.068 304.202 360.146 304.637C360.96 308.731 360.823 312.957 359.745 316.989C359.042 319.423 357.91 321.712 356.402 323.746L310.873 278.069L324.771 264.154Z" fill="#979797"/>
<path d="M255.59 356.434L255.356 356.188C251.779 352.449 248.587 348.36 245.827 343.981C242.672 339.095 240.485 333.647 239.385 327.933C238.99 325.722 238.814 323.478 238.861 321.232C238.903 319.569 239.071 317.912 239.362 316.274C240.184 311.822 241.927 307.592 244.478 303.855V303.855C245.037 303.016 245.639 302.207 246.284 301.432L246.54 301.119L304.072 243.56L322.618 262.143L264.841 320.037L264.774 319.97L263.659 321.087C263.514 321.221 263.369 321.366 263.236 321.512C262.478 322.293 261.787 323.097 261.14 323.902C260.962 324.136 260.773 324.359 260.605 324.594C258.253 327.708 256.499 331.234 255.434 334.991C253.859 340.84 253.653 346.974 254.832 352.916C254.955 353.608 255.1 354.245 255.233 354.814C255.367 355.384 255.49 355.976 255.59 356.434Z" fill="#F1F1F2"/>
<path d="M305.088 406.378L260.227 361.438L258.634 355.608C258.489 355.083 258.355 354.592 258.244 354.134C258.132 353.676 257.987 352.939 257.876 352.358C256.793 346.895 256.98 341.254 258.422 335.875C259.339 332.633 260.826 329.581 262.813 326.862L323.634 387.794L305.088 406.378Z" fill="#979797"/>
<path d="M277.468 204.585L277.713 204.35C281.406 200.807 285.442 197.642 289.762 194.902C294.584 191.779 299.961 189.614 305.599 188.525C307.76 188.128 309.956 187.952 312.153 188.001C313.798 188.033 315.438 188.197 317.057 188.492C321.451 189.308 325.627 191.035 329.316 193.562V193.562C330.242 194.199 331.044 194.802 331.713 195.36L332.003 195.606L388.844 252.562L370.543 270.978L313.39 213.687L313.457 213.62L312.342 212.503C312.197 212.358 312.052 212.224 311.919 212.078C311.138 211.33 310.347 210.649 309.556 210.012C309.322 209.823 309.099 209.644 308.865 209.476C305.793 207.147 302.316 205.408 298.611 204.35C292.835 202.795 286.78 202.589 280.912 203.747C280.236 203.881 279.612 204.015 279.04 204.149C278.449 204.317 277.881 204.451 277.468 204.585Z" fill="#F1F1F2"/>
<path d="M228.163 253.6L272.532 209.152L278.283 207.566L279.744 207.187C280.345 207.042 280.925 206.919 281.493 206.818C286.887 205.746 292.454 205.929 297.766 207.354C300.971 208.267 303.99 209.742 306.682 211.71L246.497 272.016L228.163 253.6Z" fill="#798892"/>
<path d="M188.552 356.254L188.318 356.02C184.784 352.314 181.626 348.266 178.889 343.936C175.772 339.104 173.611 333.716 172.525 328.067C172.127 325.901 171.951 323.701 172.001 321.5C172.034 319.852 172.198 318.208 172.491 316.586C173.302 312.182 175.026 307.997 177.551 304.301H177.573C178.209 303.375 178.811 302.57 179.368 301.9L179.613 301.599L236.454 244.643L254.811 263.003L197.635 320.26L197.568 320.193L196.454 321.31C196.309 321.444 196.175 321.589 196.03 321.735C195.283 322.505 194.604 323.298 193.968 324.091C193.779 324.325 193.6 324.549 193.433 324.783C191.106 327.864 189.371 331.352 188.318 335.069C186.764 340.853 186.559 346.916 187.716 352.792C187.849 353.477 187.983 354.103 188.117 354.669C188.284 355.272 188.418 355.808 188.552 356.254Z" fill="#F1F1F2"/>
<path d="M237.468 405.663L193.11 361.204L191.527 355.441C191.382 354.927 191.26 354.436 191.148 353.978C191.037 353.52 190.881 352.806 190.78 352.236C189.71 346.832 189.893 341.253 191.315 335.931C192.225 332.719 193.697 329.694 195.662 326.997L255.847 387.303L237.468 405.663Z" fill="#798892"/>
<path d="M426.461 290.611L426.684 290.846C430.232 294.548 433.402 298.596 436.146 302.929C439.266 307.761 441.43 313.149 442.522 318.799C442.904 320.966 443.076 323.165 443.034 325.366C442.881 331.515 440.945 337.488 437.462 342.553C436.837 343.469 436.224 344.273 435.667 344.954L435.422 345.245L378.58 402.201L360.235 383.83L417.389 326.561L417.456 326.628L418.57 325.511L418.994 325.087C419.74 324.305 420.431 323.512 421.067 322.719L421.602 322.027C423.919 318.945 425.65 315.462 426.706 311.752C428.226 305.984 428.405 299.944 427.23 294.096C427.096 293.418 426.963 292.793 426.829 292.219C426.729 291.594 426.584 291.058 426.461 290.611Z" fill="#F1F1F2"/>
<path d="M377.531 241.204L421.901 285.664L423.484 291.426C423.618 291.951 423.751 292.432 423.852 292.889C423.952 293.347 424.119 294.006 424.231 294.643C425.301 300.043 425.118 305.618 423.696 310.937C422.786 314.151 421.31 317.177 419.338 319.871L359.153 259.564L377.531 241.204Z" fill="#979797"/>
</g>
</g>
<defs>
<clipPath id="clip0_1_96">
<rect width="271" height="271" fill="white" transform="translate(166 562)"/>
</clipPath>
<clipPath id="clip1_1_96">
<rect width="271" height="271" fill="white" transform="translate(342 375)"/>
</clipPath>
<clipPath id="clip2_1_96">
<rect width="271" height="271" fill="white" transform="translate(338 750)"/>
</clipPath>
<clipPath id="clip3_1_96">
<rect width="271" height="271" fill="white"/>
</clipPath>
<clipPath id="clip4_1_96">
<rect width="271" height="271" fill="white" transform="translate(354 1)"/>
</clipPath>
<clipPath id="clip5_1_96">
<rect width="271" height="271" fill="white" transform="translate(172 188)"/>
</clipPath>
</defs>
</svg>
