<svg width="139" height="44" viewBox="0 0 139 44" fill="none" xmlns="http://www.w3.org/2000/svg">
<path d="M33.8773 0H10.1227C4.53209 0 0 4.53209 0 10.1227V33.8773C0 39.4679 4.53209 44 10.1227 44H33.8773C39.4679 44 44 39.4679 44 33.8773V10.1227C44 4.53209 39.4679 0 33.8773 0Z" fill="#F1F2F2"/>
<path d="M77.0526 40.7904C74.1732 40.7904 72.0875 39.9649 70.7954 38.3138C69.5033 36.6626 69.1033 34.2552 69.5955 31.0915L73.5582 6.32333C73.8732 4.16922 75.1243 3.09216 77.3117 3.09216C78.3195 3.09216 79.0582 3.42284 79.5279 4.08419C79.9976 4.74554 80.1456 5.68357 79.972 6.8983L76.1226 31.043C75.881 32.5722 76.0066 33.6951 76.5127 34.405C77.0188 35.115 77.8435 35.4754 78.9894 35.4754C79.3061 35.4809 79.6226 35.4552 79.9342 35.3984C80.1557 35.3486 80.382 35.3228 80.609 35.3215C80.7667 35.3157 80.9237 35.3454 81.0683 35.4085C81.2129 35.4715 81.3415 35.5664 81.4445 35.6859C81.6523 35.9275 81.7563 36.3985 81.7563 37.0923C81.7563 38.101 81.5475 38.8743 81.13 39.4124C80.7539 39.9212 80.2246 40.2959 79.6197 40.4814C79.2293 40.6025 78.8271 40.6813 78.4198 40.7162C77.9681 40.7668 77.5139 40.7934 77.0593 40.7958M54.1145 40.6933C53.105 40.6933 52.3599 40.3518 51.8983 39.6769C51.4368 39.0021 51.2802 38.0708 51.453 36.8858L54.2171 19.6785H52.0239C50.3143 19.6785 49.4622 19.0181 49.4676 17.6972C49.4676 16.7915 49.7375 16.0776 50.2774 15.5579C50.8172 15.0383 51.5353 14.7751 52.4369 14.7751H54.9406L55.1511 13.5253C55.6352 10.5308 56.8166 8.16476 58.6954 6.42725C60.5742 4.68975 63.3186 3.69998 66.9285 3.45793L68.5968 3.35535C69.4673 3.28652 70.1003 3.49032 70.5025 3.95732C70.8957 4.41095 71.1013 4.99734 71.0775 5.59719C71.0667 6.20198 70.878 6.79018 70.5349 7.28836C70.365 7.53684 70.1406 7.7433 69.8789 7.89204C69.6172 8.04079 69.325 8.1279 69.0246 8.14676L67.6196 8.25204C65.8137 8.38701 64.437 8.87695 63.5017 9.71241C62.5663 10.5479 61.9509 11.7788 61.6809 13.416L61.4704 14.7738H65.5815C67.284 14.7738 68.1361 15.4167 68.1379 16.7025C68.1379 17.6473 67.8679 18.3693 67.328 18.8917C66.7882 19.414 66.0661 19.6731 65.1685 19.6731H60.7361L57.9166 37.4513C57.5333 39.6108 56.2687 40.6906 54.1105 40.6906" fill="white"/>
<path d="M95.9267 35.8371C97.5265 35.8371 98.8735 35.3872 99.9677 34.4874C101.065 33.5817 101.904 32.3481 102.498 30.7838C103.092 29.2195 103.386 27.4757 103.386 25.5619C103.386 23.5121 102.892 21.9375 101.902 20.8379C100.912 19.7384 99.5484 19.1913 97.8109 19.1967C96.2461 19.1967 94.9081 19.6466 93.7969 20.5464C92.6856 21.4462 91.8331 22.6762 91.2392 24.2365C90.6489 25.7841 90.3538 27.5311 90.3538 29.4773C90.3538 31.5271 90.8487 33.1017 91.8385 34.2012C92.8282 35.3008 94.1905 35.8479 95.9253 35.8425M95.7688 40.7959C92.0148 40.7959 89.0779 39.753 86.958 37.6673C84.8381 35.5815 83.7772 32.7841 83.7754 29.2749C83.7754 26.2156 84.4106 23.5652 85.6812 21.3238C86.8813 19.1491 88.6553 17.3457 90.81 16.11C92.9641 14.8754 95.345 14.2582 97.9526 14.2582C101.707 14.2582 104.643 15.3006 106.762 17.3854C108.881 19.4702 109.944 22.2682 109.951 25.7792C109.951 28.8385 109.316 31.4888 108.046 33.7302C106.848 35.9007 105.082 37.7035 102.936 38.9441C100.8 40.1786 98.4119 40.7959 95.7701 40.7959" fill="white"/>
<path d="M121.054 40.7904C118.311 40.7904 116.209 39.9217 114.748 38.1842C113.288 36.4467 112.853 33.718 113.444 29.9983L115.48 17.38C115.79 15.3636 116.973 14.3553 119.027 14.3553C120.107 14.3553 120.893 14.6658 121.4 15.3001C121.906 15.9345 122.066 16.8104 121.895 17.9617L120.016 29.9538C119.735 31.864 119.883 33.2888 120.46 34.2282C121.037 35.1676 122.107 35.6355 123.67 35.6319C125.618 35.6319 127.199 34.989 128.413 33.7032C129.626 32.4174 130.408 30.6628 130.758 28.4394L132.481 17.3854C132.791 15.369 133.972 14.3607 136.022 14.3607C137.134 14.3607 137.934 14.6829 138.422 15.3271C138.91 15.9714 139.066 16.8662 138.89 18.0117L135.816 37.6146C135.502 39.6643 134.319 40.6892 132.269 40.6892C130.115 40.6892 129.193 39.5595 129.504 37.3001L129.662 36.3108C127.683 39.2999 124.813 40.7949 121.054 40.7958" fill="white"/>
<path d="M18.2209 26.3392C17.6189 27.2803 17.2233 28.3383 17.0602 29.4435C17.0458 29.5335 17.0323 29.6235 17.0197 29.7135L16.5338 32.4695C16.5338 32.4817 16.5338 32.4925 16.5257 32.506C15.975 36.6752 13.582 39.9509 8.3182 39.546C8.24368 39.5423 8.17233 39.5147 8.11474 39.4673C8.05715 39.4198 8.01639 39.3551 7.99851 39.2827C7.98063 39.2102 7.98658 39.134 8.01548 39.0652C8.04438 38.9964 8.09469 38.9388 8.15893 38.9008C9.21439 38.2044 10.1025 35.6899 10.4075 32.4075V32.4007C10.4093 32.3414 10.4152 32.2824 10.4251 32.2239V32.1794L10.8097 31.487L10.9083 31.3088L10.9272 31.2751L10.9852 31.1738L11.0095 31.1333L11.0324 31.0929L11.1418 30.9106C11.22 30.7851 11.301 30.6596 11.382 30.5395C11.3941 30.5233 11.4049 30.5057 11.4157 30.4895L11.5075 30.3546C11.5507 30.2925 11.5966 30.2291 11.6425 30.1656C11.646 30.1613 11.6491 30.1568 11.6519 30.1521L11.66 30.1413L11.764 30.0064C11.7829 29.9834 11.8018 29.9578 11.8207 29.9335L11.8706 29.87L11.9219 29.8052L12.0177 29.6865C12.3493 29.2842 12.7102 28.9071 13.0975 28.5581C13.6303 28.071 14.2193 27.6492 14.8521 27.3016C15.1914 27.1179 15.5432 26.9583 15.9048 26.8238H15.9183L16.0641 26.7725L16.218 26.7212L16.3718 26.6726C16.4757 26.6416 16.5783 26.6119 16.6836 26.5849L16.8186 26.5511C16.8361 26.5511 16.8537 26.543 16.8712 26.539C16.9117 26.5282 16.9522 26.5201 16.994 26.5106L17.1533 26.4783H17.1816L17.2761 26.454L17.3517 26.4418L17.4867 26.4202H17.4961H17.5083L17.6635 26.3986L17.82 26.3797L17.955 26.3662H17.9955L18.1305 26.3554H18.1872L18.2209 26.3392Z" fill="#004E7E"/>
<path d="M38.4001 4.87913C37.786 11.0472 33.5183 13.1501 28.5757 12.9355H20.9C13.8249 12.6763 12.3578 18.6339 12.3578 18.6339C12.4779 5.10048 22.0634 5.82662 22.0634 5.82662H29.5002C29.5704 5.82662 25.2932 5.82662 25.3621 5.84281H29.7175C33.575 6.15999 36.6658 5.64576 37.6807 4.56735C37.7359 4.49656 37.813 4.4461 37.9 4.4239C37.9869 4.4017 38.0788 4.40902 38.1611 4.44471C38.2435 4.4804 38.3116 4.54243 38.3549 4.62106C38.3982 4.6997 38.4141 4.79047 38.4001 4.87913V4.87913Z" fill="#3CB29E"/>
<path d="M29.7189 20.1469L29.6838 20.6503C29.5907 21.9919 28.8267 23.2147 27.7483 24.1217C26.566 25.1205 25.0031 25.7414 23.5305 25.7414H18.5637C18.2685 25.7468 17.9819 25.7652 17.7039 25.7967C16.575 25.9226 15.4825 26.2722 14.4903 26.8252C12.7883 27.77 11.6276 29.1358 10.9446 30.1373C10.8367 30.2939 10.7422 30.4424 10.6572 30.5787C10.5721 30.715 10.4938 30.8486 10.4318 30.962C10.4318 30.9309 10.4318 30.9012 10.4318 30.8716C10.4613 29.4701 10.6313 28.0752 10.9392 26.7078C11.3617 24.8992 12.019 23.4941 12.7748 22.4036C13.1194 21.9095 13.5118 21.4507 13.9464 21.0336C15.1681 19.8746 16.6998 19.0949 18.3558 18.7891V18.7891C18.9172 18.6765 19.4893 18.6258 20.0618 18.6379H20.1361H23.2147C23.2843 18.6385 23.3537 18.6439 23.4226 18.6541H23.4334C24.8645 18.7833 26.3046 18.7783 27.7348 18.6393H28.3125C28.5068 18.6361 28.6996 18.6738 28.8784 18.7498C29.0573 18.8258 29.2182 18.9385 29.3507 19.0806C29.4833 19.2227 29.5845 19.391 29.6479 19.5747C29.7114 19.7583 29.7355 19.9533 29.7189 20.1469V20.1469Z" fill="#3CB29E"/>
<path d="M19.8945 13.4727C19.3317 14.327 18.889 15.4257 18.6933 16.8469L18.4503 18.2209V18.2425C16.6394 18.5397 14.9589 19.3722 13.6252 20.6328C13.4902 20.757 13.366 20.8865 13.2405 21.0201C13.0203 20.5047 12.8398 19.9732 12.7006 19.4302L12.7614 19.1886L12.8666 18.7662C13.1302 17.8971 13.55 17.0834 14.1057 16.365C14.1758 16.2719 14.2501 16.1801 14.3284 16.087C15.5269 14.6644 17.1168 13.8128 19.0685 13.5455C19.1589 13.5455 19.2412 13.5347 19.3141 13.5334H19.329L19.4855 13.5131L19.6205 13.4996H19.661L19.796 13.4889H19.8526L19.8945 13.4727Z" fill="#004E7E"/>
</svg>
